<?xml version="1.0" encoding="UTF-8"?>
<svg height="600" width="800" xmlns="http://www.w3.org/2000/svg" xmlns:xlink="http://www.w3.org/1999/xlink">
    <g id="Notes" font-family="'LucidaGrande', 'Lucida Grande', sans-serif" font-size="13">
        <rect fill="white" height="600.0" width="800.0" x="0.0" y="0.0" />
        <g font-size="13">
            <text x="18.0" y="176.0">Small</text>
            <text x="18.0" y="376.0">Medium</text>
            <text x="18.0" y="576.0">Large</text>
        </g>
        <g font-size="9">
            <text x="250.0" y="30.0">Ultralight</text>
            <text x="450.0" y="30.0">Regular</text>
            <text x="650.0" y="30.0">Black</text>
            <text id="template-version" fill="#505050" text-anchor="end" x="785.0" y="575.0">Template v.3.0</text>
            <a href="https://wangchujiang.com/#/app">
                <text fill="#505050" text-anchor="end" x="785.0" y="590.0">https://wangchujiang.com/#/app</text>
            </a>
        </g>
    </g>
    <g id="Guides" stroke="rgb(39, 170, 225)" stroke-width="0.5">
        <path id="Capline-S" d="M18,76 l800,0" />
        <path id="H-reference" d="M85,145.755 L87.685,145.755 L113.369,79.287 L114.052,79.287 L114.052,76 L112.148,76 L85,145.755 Z M95.693,121.536 L130.996,121.536 L130.263,119.313 L96.474,119.313 L95.693,121.536 Z M139.15,145.755 L141.787,145.755 L114.638,76 L113.466,76 L113.466,79.287 L139.15,145.755 Z" stroke="none" />
        <path id="Baseline-S" d="M18,146 l800,0" />
        <path id="left-margin-Ultralight-S" d="M217.006,56 l0,110" />
        <path id="right-margin-Ultralight-S" d="M312.994,56 l0,110" />
        <path id="left-margin-Regular-S" d="M417.006,56 l0,110" />
        <path id="right-margin-Regular-S" d="M512.994,56 l0,110" />
        <path id="left-margin-Black-S" d="M617.006,56 l0,110" />
        <path id="right-margin-Black-S" d="M712.994,56 l0,110" />
        <path id="Capline-M" d="M18,276 l800,0" />
        <path id="Baseline-M" d="M18,346 l800,0" />
        <path id="Capline-L" d="M18,476 l800,0" />
        <path id="Baseline-L" d="M18,546 l800,0" />
    </g>
    <g id="Symbols">
        <g id="Ultralight-S">
            <path d="M295.873,144.412 C300.116,147.594 306.48,145.472 300.648,139.637 C283.142,122.669 286.859,76 265.117,76 C243.375,76 247.086,122.669 229.586,139.64 C223.222,146.001 230.115,147.59 234.357,144.408 C250.796,133.273 249.736,113.652 265.117,113.652 C280.495,113.652 279.434,133.273 295.873,144.412 Z" />
        </g>
        <g id="Regular-S">
            <path d="M495.873,144.412 C500.116,147.594 506.48,145.472 500.648,139.637 C483.142,122.669 486.859,76 465.117,76 C443.375,76 447.086,122.669 429.586,139.64 C423.222,146.001 430.115,147.59 434.357,144.408 C450.796,133.273 449.736,113.652 465.117,113.652 C480.495,113.652 479.434,133.273 495.873,144.412 Z" />
        </g>
        <g id="Black-S">
            <path d="M695.873,144.412 C700.116,147.594 706.48,145.472 700.648,139.637 C683.142,122.669 686.859,76 665.117,76 C643.375,76 647.086,122.669 629.586,139.64 C623.222,146.001 630.115,147.59 634.357,144.408 C650.796,133.273 649.736,113.652 665.117,113.652 C680.495,113.652 679.434,133.273 695.873,144.412 Z" />
        </g>
    </g>
</svg>